<?xml version="1.0" encoding="UTF-8" standalone="no"?>
<svg
   xmlns:dc="http://purl.org/dc/elements/1.1/"
   xmlns:cc="http://creativecommons.org/ns#"
   xmlns:rdf="http://www.w3.org/1999/02/22-rdf-syntax-ns#"
   xmlns:svg="http://www.w3.org/2000/svg"
   xmlns="http://www.w3.org/2000/svg"
   xmlns:sodipodi="http://sodipodi.sourceforge.net/DTD/sodipodi-0.dtd"
   xmlns:inkscape="http://www.inkscape.org/namespaces/inkscape"
   version="1.1"
   width="96"
   height="48"
   stroke="none"
   id="svg50"
   sodipodi:docname="alldesktops.svg"
   inkscape:version="0.92.3 (2405546, 2018-03-11)">
  <metadata
     id="metadata56">
    <rdf:RDF>
      <cc:Work
         rdf:about="">
        <dc:format>image/svg+xml</dc:format>
        <dc:type
           rdf:resource="http://purl.org/dc/dcmitype/StillImage" />
      </cc:Work>
    </rdf:RDF>
  </metadata>
  <defs
     id="defs54" />
  <sodipodi:namedview
     pagecolor="#ffffff"
     bordercolor="#666666"
     borderopacity="1"
     objecttolerance="10"
     gridtolerance="10"
     guidetolerance="10"
     inkscape:pageopacity="0"
     inkscape:pageshadow="2"
     inkscape:window-width="1920"
     inkscape:window-height="1060"
     id="namedview52"
     showgrid="false"
     inkscape:zoom="8.1611908"
     inkscape:cx="49.757685"
     inkscape:cy="29.047633"
     inkscape:window-x="1920"
     inkscape:window-y="0"
     inkscape:window-maximized="1"
     inkscape:current-layer="svg50" />
  <!--standard-->
  <g
     id="g12">
    <g
       id="active-center"
       transform="translate(0,0)">
      <circle
         cx="12"
         cy="12"
         r="12"
         opacity="0"
         id="circle2" />
      <circle
         cx="12"
         cy="12"
         r="5"
         fill="#bbb"
         id="circle4" />
    </g>
    <g
       id="inactive-center"
       transform="translate(0,24)">
      <circle
         cx="12"
         cy="12"
         r="12"
         opacity="0"
         id="circle7" />
      <circle
         cx="12"
         cy="12"
         r="5"
         fill="#888"
         id="circle9" />
    </g>
  </g>
  <!--hover-->
  <g
     id="g24">
    <g
       id="hover-center"
       transform="translate(24,0)">
      <circle
         cx="12"
         cy="12"
         r="12"
         fill="#bbb"
         id="circle14" />
      <circle
         cx="12"
         cy="12"
         r="5"
         fill="#000"
         id="circle16" />
    </g>
    <g
       id="hover-inactive-center"
       transform="translate(24,24)">
      <circle
         cx="12"
         cy="12"
         r="12"
         fill="#666"
         id="circle19" />
      <circle
         cx="12"
         cy="12"
         r="5"
         fill="#000"
         id="circle21" />
    </g>
  </g>
  <!--pressed-->
  <g
     id="g36">
    <g
       id="pressed-center"
       transform="translate(48,0)">
      <circle
         cx="12"
         cy="12"
         r="12"
         fill="#6da741"
         id="circle26" />
      <circle
         cx="12"
         cy="12"
         r="5"
         fill="#fff"
         id="circle28" />
    </g>
    <g
       id="pressed-inactive-center"
       transform="translate(48,24)">
      <circle
         cx="12"
         cy="12"
         r="12"
         fill="#6d7c41"
         id="circle31" />
      <circle
         cx="12"
         cy="12"
         r="5"
         fill="#bbb"
         id="circle33" />
    </g>
  </g>
  <!--disabled-->
  <g
     id="g48">
    <g
       id="deactivated-center"
       transform="translate(72,0)">
      <circle
         cx="12"
         cy="12"
         r="12"
         opacity="0"
         id="circle38" />
      <circle
         cx="12"
         cy="12"
         r="5"
         fill="#666"
         id="circle40" />
    </g>
    <g
       id="deactivated-inactive-center"
       transform="translate(72,24)">
      <circle
         cx="12"
         cy="12"
         r="12"
         opacity="0"
         id="circle43" />
      <circle
         cx="12"
         cy="12"
         r="5"
         fill="#666"
         id="circle45" />
    </g>
  </g>
  <path
     style="fill:#6da741;fill-opacity:1;stroke-width:0.12253114"
     d="M 58.224587,23.831297 C 58.089803,23.799827 57.59723,23.686621 57.129981,23.579726 53.77702,22.812656 50.644457,20.223697 49.146558,16.98169 47.372032,13.140961 47.852067,8.3550438 50.35195,4.9640062 53.374456,0.86404289 58.721603,-0.91854757 63.487777,0.58488618 68.968163,2.3136095 72.329677,7.340416 71.868146,13.116881 71.47248,18.068982 67.909592,22.227412 62.88077,23.60651 c -0.713122,0.195566 -4.084276,0.358315 -4.656183,0.224787 z m 3.614669,-7.145896 c 0.370656,-0.141144 0.919679,-0.45263 1.220051,-0.692192 2.973832,-2.371784 2.469659,-6.929582 -0.94549,-8.5473575 -0.76568,-0.362707 -0.919836,-0.3912582 -2.112529,-0.3912582 -1.192691,0 -1.346848,0.028551 -2.112529,0.3912582 -1.069013,0.5063979 -1.952326,1.3897102 -2.458723,2.4587239 -0.363351,0.7670396 -0.391117,0.9177196 -0.389267,2.1125286 0.0018,1.194229 0.02996,1.344019 0.391683,2.086837 0.660874,1.357155 1.836228,2.359141 3.223965,2.748423 0.876766,0.245946 2.293694,0.171619 3.182839,-0.166963 z"
     id="path866"
     inkscape:connector-curvature="0" />
  <path
     style="fill:#6d7c41;fill-opacity:1;stroke-width:0.12253114"
     d="m 57.550666,47.683644 c -1.344368,-0.300274 -1.908986,-0.510002 -3.149323,-1.169825 -3.595816,-1.912867 -5.993075,-5.521086 -6.268891,-9.435582 -0.430267,-6.106538 3.287406,-11.258923 9.173151,-12.713226 1.392597,-0.344095 3.805281,-0.36618 5.207574,-0.04767 4.389044,0.996912 7.758532,4.203804 9.029252,8.593546 0.246371,0.851095 0.2831,1.248364 0.282999,3.061054 -8.8e-5,1.589106 -0.04986,2.262767 -0.209893,2.841039 -1.010388,3.650923 -3.141931,6.28304 -6.381205,7.879778 -1.753881,0.864541 -2.825889,1.120712 -4.926714,1.177305 -1.364924,0.03677 -1.928246,-0.0013 -2.75695,-0.186419 z m 4.53376,-7.125358 c 0.642054,-0.295942 1.054745,-0.599795 1.586053,-1.167764 1.000264,-1.069285 1.283358,-1.820086 1.288998,-3.41858 0.004,-1.129672 -0.02636,-1.290096 -0.388832,-2.055316 -0.488466,-1.031219 -1.434035,-2.000496 -2.425062,-2.485863 -0.683818,-0.334908 -0.833643,-0.360066 -2.144295,-0.360066 -1.29471,0 -1.465732,0.02781 -2.106581,0.342509 -1.080833,0.530766 -1.861876,1.309385 -2.394492,2.387059 -0.44255,0.895439 -0.461261,0.984072 -0.457115,2.165322 0.0035,0.990959 0.05939,1.370187 0.286084,1.940458 0.531946,1.338149 2.072329,2.655143 3.5392,3.02594 0.252441,0.06381 0.884049,0.09584 1.403575,0.07118 0.745567,-0.0354 1.127453,-0.129132 1.812467,-0.444875 z"
     id="path868"
     inkscape:connector-curvature="0" />
  <path
     style="fill:#6d7c41;fill-opacity:1;stroke-width:0.12253114"
     d="m 57.138922,47.549253 c -4.249579,-1.076857 -7.676184,-4.571834 -8.73943,-8.913814 -0.310564,-1.26825 -0.279533,-3.950748 0.06172,-5.335531 1.061355,-4.306896 4.085998,-7.486925 8.300553,-8.726981 2.029982,-0.597285 4.931859,-0.548827 6.881753,0.114918 3.666466,1.248067 6.454704,4.046412 7.702771,7.730694 0.300047,0.885735 0.337468,1.194193 0.388118,3.199157 0.04949,1.959239 0.02628,2.336649 -0.198371,3.225027 -0.307802,1.217192 -1.166649,3.069693 -1.898889,4.095835 -1.158584,1.623611 -3.170428,3.203829 -5.128966,4.028587 -1.531747,0.645032 -1.977716,0.726431 -4.261831,0.777874 -1.84372,0.04153 -2.279302,0.01408 -3.107428,-0.195766 z m 4.761599,-6.861011 c 0.562515,-0.21571 0.938183,-0.486107 1.599485,-1.151271 0.987727,-0.993495 1.24661,-1.469586 1.426131,-2.622693 0.184514,-1.185166 0.07245,-2.169902 -0.344427,-3.026544 -0.441594,-0.907435 -1.495279,-1.999685 -2.376194,-2.463165 -0.637475,-0.335398 -0.752551,-0.353872 -2.204228,-0.353872 -1.507985,0 -1.543441,0.0064 -2.295865,0.414448 -0.943885,0.51188 -1.727024,1.332865 -2.248953,2.357635 -0.324034,0.636218 -0.408052,0.964071 -0.452405,1.765374 -0.06208,1.121571 0.182673,2.299996 0.606273,2.91905 0.692983,1.012735 1.860161,1.960372 2.849898,2.313846 0.853971,0.304986 2.428905,0.235032 3.440285,-0.152808 z"
     id="path870"
     inkscape:connector-curvature="0" />
</svg>
